# xmcd CD database file
#
# Track frame offsets:
#	187
#	20387
#	42857
#	67932
#	69275
#	92247
#	114535
#	139685
#	140925
#	161670
#	183960
#	209322
#	210790
#	224755
#	249812
#
# Disc length: 3669 seconds
#
# Revision: 1
# Processed by: cddbd v1.5.2PL0 Copyright (c) Steve Scherf et al.
# Submitted via: CDex 1.70beta2
#
DISCID=d60e530f
DTITLE=GRP and J-WAVE 81.3FM Presents - Pazz and Jops 1992
DYEAR=1991
DGENRE=Jazz
TTITLE0=Reference Point - Acoustic Alchemy
TTITLE1=Broad Street - George Howard
TTITLE2=Into The Light - Deborah Henson-Conant
TTITLE3=J-WAVE Jingle
TTITLE4=Love Makes Things Happen - Pebbles
TTITLE5=Minutes By Minutes - Larry Carlton
TTITLE6=Take Another Look - Gary Burton
TTITLE7=J-Wave Jingle
TTITLE8=Festival - Special EFX
TTITLE9=Reason For The Rain - Tom Scott
TTITLE10=Cause We've Ended As Lovers
TTITLE11=J-WAVE Jingle
TTITLE12=Love Theme - Dave Grusin
TTITLE13=Take Me With You - The Rippingtons Featuring Russ Freeman
TTITLE14=Last Train Home - Pat Metheny
EXTD=YEAR: 1991
EXTT0=
EXTT1=
EXTT2=
EXTT3=
EXTT4=
EXTT5=
EXTT6=
EXTT7=
EXTT8=
EXTT9=
EXTT10=
EXTT11=
EXTT12=
EXTT13=
EXTT14=
PLAYORDER=
